<?xml version="1.0" standalone="no"?>
<!DOCTYPE svg PUBLIC "-//W3C//DTD SVG 20010904//EN"
 "http://www.w3.org/TR/2001/REC-SVG-20010904/DTD/svg10.dtd">
<svg version="1.0" xmlns="http://www.w3.org/2000/svg"
 width="1024.000000pt" height="1024.000000pt" viewBox="0 0 1024.000000 1024.000000"
 preserveAspectRatio="xMidYMid meet">

<g transform="translate(0.000000,1024.000000) scale(0.100000,-0.100000)"
fill="#000000" stroke="none">
<path d="M5743 10200 c0 -25 2 -35 4 -22 2 12 2 32 0 45 -2 12 -4 2 -4 -23z"/>
<path d="M5870 10232 c0 -22 39 -42 83 -42 35 0 47 -4 47 -15 0 -8 9 -15 20
-15 16 0 20 -7 20 -35 0 -28 4 -35 20 -35 16 0 20 -7 20 -30 0 -28 3 -30 38
-30 l37 0 3 -147 c3 -141 4 -147 28 -165 13 -11 24 -24 24 -29 0 -5 -29 -9
-65 -9 l-65 0 0 -38 c0 -30 5 -41 23 -50 12 -6 16 -11 10 -11 -8 -1 -13 -14
-13 -31 0 -27 3 -30 30 -30 28 0 30 -2 30 -40 0 -38 2 -40 29 -40 16 0 31 -6
34 -12 2 -7 8 -1 12 15 6 24 12 27 46 27 28 0 39 -4 39 -15 0 -8 7 -15 15 -15
11 0 15 -11 15 -40 0 -29 -4 -40 -15 -40 -8 0 -15 -7 -15 -15 0 -11 11 -15 40
-15 l40 0 0 -65 c0 -51 3 -65 15 -65 11 0 15 -11 15 -40 0 -36 3 -40 25 -40
23 0 25 -4 25 -40 0 -29 4 -40 15 -40 15 0 19 -29 15 -113 -1 -30 4 -42 24
-58 22 -17 26 -29 26 -70 l0 -49 40 0 c29 0 40 -4 40 -15 0 -9 9 -15 25 -15
23 0 25 -4 25 -40 0 -22 -4 -40 -10 -40 -5 0 -10 -9 -10 -20 0 -11 5 -20 10
-20 6 0 10 -27 10 -60 0 -47 3 -60 15 -60 12 0 15 -17 15 -90 0 -87 1 -92 28
-115 22 -20 24 -26 13 -34 -11 -7 -9 -14 12 -34 15 -13 27 -29 27 -34 0 -5 12
-10 28 -10 62 -1 62 -1 62 -43 l0 -40 -45 0 -45 0 0 -45 c0 -25 -4 -45 -10
-45 -6 0 -10 -30 -10 -70 0 -58 3 -70 16 -70 14 0 16 8 12 48 -7 61 -2 72 32
72 29 0 40 15 40 56 0 20 5 24 28 24 18 0 42 14 74 44 25 25 49 42 52 39 3 -4
6 1 6 10 0 13 -9 17 -39 17 -40 0 -40 0 -43 -42 -2 -24 -3 10 -4 75 0 90 -3
120 -14 127 -8 5 -18 6 -22 4 -4 -3 -8 13 -8 35 0 48 -26 58 -33 14 -2 -16 -4
4 -4 42 0 39 2 55 4 38 4 -31 7 -33 44 -33 37 0 39 2 39 30 0 20 -5 30 -15 30
-11 0 -15 11 -15 40 0 36 -2 40 -25 40 -16 0 -25 6 -25 15 0 11 11 15 39 15
22 0 42 6 44 13 4 8 14 3 31 -15 14 -16 30 -28 36 -28 6 0 10 -31 10 -80 0
-80 0 -80 26 -80 25 0 26 -2 20 -40 -3 -22 -9 -58 -12 -80 -6 -38 -5 -40 20
-40 26 0 26 0 26 -80 0 -78 1 -80 24 -80 13 0 30 -8 37 -17 12 -14 12 -16 -1
-9 -8 4 -6 0 4 -8 14 -12 42 -16 98 -16 l78 0 0 -70 0 -70 80 0 80 0 0 30 0
31 25 -18 c18 -14 24 -27 25 -55 0 -34 3 -38 26 -38 16 0 34 -10 46 -25 11
-14 24 -25 29 -25 5 0 9 11 9 25 0 25 1 25 80 25 l80 0 0 -40 c0 -29 4 -40 15
-40 11 0 15 -11 15 -40 l0 -40 -57 -1 c-32 -1 -82 -2 -110 -2 l-53 1 0 -39 c0
-28 4 -39 15 -39 19 0 22 -79 3 -81 -28 -3 -164 2 -180 7 -13 4 -18 16 -18 40
0 31 -2 34 -30 34 -28 0 -30 -2 -30 -40 0 -24 -5 -40 -12 -40 -9 0 -9 -3 0
-12 15 -15 16 -48 1 -48 -6 0 -9 -6 -6 -14 4 -9 -2 -13 -17 -12 -17 1 -22 6
-18 19 4 17 2 19 -45 20 -16 1 -31 5 -34 10 -8 12 -139 10 -172 -2 -16 -6 -38
-11 -50 -10 -20 1 -20 2 3 9 14 5 18 8 9 9 -9 1 -32 3 -50 6 -29 4 -30 3 -9
-4 l25 -9 -25 -1 c-14 0 -32 4 -40 9 -12 8 -12 10 -1 10 8 0 12 2 9 5 -3 3
-13 3 -22 -1 -15 -6 -15 -7 1 -20 10 -7 30 -14 45 -14 15 0 39 -5 55 -11 28
-11 338 -72 423 -83 l45 -6 -55 19 c-41 14 -49 19 -30 21 23 1 24 2 5 11 -17
8 -17 9 5 4 14 -2 35 -5 48 -5 25 0 75 -47 66 -61 -3 -5 2 -6 10 -3 9 3 16 1
16 -5 0 -6 -8 -11 -19 -11 -13 0 -18 -7 -18 -25 0 -24 3 -25 53 -25 45 0 54
-3 54 -17 0 -15 2 -16 10 -3 5 8 10 25 10 38 0 21 4 22 80 22 64 0 80 3 80 15
0 11 -14 15 -57 17 l-58 2 53 3 52 4 0 68 c0 37 3 71 7 75 4 4 6 25 4 46 l-3
40 41 0 41 0 0 -40 0 -40 80 0 80 0 0 -55 0 -55 80 0 c64 0 80 3 80 15 0 11
-11 15 -40 15 -29 0 -40 4 -40 15 0 11 11 15 40 15 29 0 40 -4 40 -15 0 -8 7
-15 15 -15 11 0 15 -11 15 -40 0 -29 -4 -40 -15 -40 -8 0 -15 -9 -15 -20 0
-11 7 -20 15 -20 8 0 15 -9 15 -20 0 -11 -7 -20 -15 -20 -9 0 -15 -9 -15 -25
0 -22 -4 -25 -40 -25 -29 0 -40 -4 -40 -15 0 -12 16 -15 80 -15 l80 0 0 40 0
40 55 0 55 0 0 -40 c0 -33 -3 -40 -19 -40 -11 0 -23 -4 -26 -10 -3 -5 -1 -10
4 -10 6 0 11 -9 11 -19 0 -11 6 -22 13 -25 10 -5 10 -7 0 -12 -8 -3 -13 -26
-13 -60 0 -53 0 -54 30 -54 17 0 30 -4 30 -10 0 -5 6 -10 14 -10 7 0 19 -7 26
-15 7 -8 23 -15 36 -15 21 0 24 -5 24 -40 0 -38 1 -40 31 -40 l31 0 -7 -80
c-6 -70 -5 -80 9 -80 12 0 16 -10 16 -40 l0 -40 -120 0 -120 0 0 -80 0 -80
-40 0 c-29 0 -40 -4 -40 -15 0 -11 -11 -15 -40 -15 l-40 0 0 55 c0 52 1 55 25
55 23 0 25 4 25 40 0 36 -2 40 -25 40 -16 0 -25 6 -25 15 0 12 -16 15 -80 15
-64 0 -80 -3 -80 -15 0 -11 -11 -15 -40 -15 -22 0 -40 -4 -40 -9 0 -12 -59
-71 -71 -71 -5 0 -9 7 -9 16 0 14 -2 15 -17 3 -15 -13 -15 -14 0 -17 12 -3 17
-14 17 -43 0 -39 0 -39 -40 -39 -38 0 -40 -1 -40 -32 l0 -33 75 3 c49 2 75 0
75 -7 0 -6 -21 -11 -50 -11 l-50 0 0 -80 c0 -64 3 -80 15 -80 11 0 15 -11 15
-40 l0 -40 -80 0 c-79 0 -80 0 -80 -25 0 -22 -4 -25 -39 -25 -29 0 -41 -5 -44
-17 -3 -10 -5 1 -6 25 -1 35 -4 42 -21 42 -17 0 -20 7 -20 40 0 29 -4 40 -15
40 -9 0 -15 -10 -16 -27 -1 -28 -1 -28 -15 6 -8 18 -13 50 -11 70 4 35 4 35 5
-6 1 -24 7 -43 12 -43 15 0 12 71 -4 99 l-14 24 -6 -21 c-4 -12 -12 -22 -17
-22 -10 0 -12 17 -14 148 -1 90 -1 92 22 92 13 0 23 5 23 10 0 7 13 8 34 5 33
-7 34 -6 49 39 16 47 14 53 -13 37 -8 -6 -18 -7 -24 -4 -5 4 -2 9 8 13 16 5
18 27 16 305 0 164 -3 302 -6 307 -3 4 -32 8 -65 8 l-59 0 -1 -282 c-1 -156
-2 -287 -4 -293 -1 -5 -3 -21 -3 -34 -2 -23 -4 -24 -69 -18 -76 6 -58 -6 25
-18 48 -6 52 -9 52 -33 0 -15 2 -295 4 -622 3 -327 4 -604 4 -615 0 -11 -2
-338 -4 -726 l-4 -706 92 -7 c51 -4 101 -9 111 -12 16 -5 17 -29 17 -319 l0
-313 28 -6 c43 -9 179 -24 274 -31 49 -4 90 -10 93 -14 10 -16 -103 -31 -243
-32 -134 0 -143 -2 -107 -13 l40 -13 -35 -4 c-26 -3 -36 -9 -38 -25 -3 -19
-10 -21 -70 -23 -98 -2 -354 -21 -376 -27 -10 -4 -22 0 -27 7 -5 8 -9 186 -9
397 l0 382 -117 0 c-65 0 -123 -4 -129 -8 -9 -5 -14 -121 -19 -394 -7 -339
-10 -388 -23 -393 -9 -3 -66 -10 -127 -16 -229 -21 -216 -18 -204 -40 5 -11
15 -16 21 -13 7 4 8 2 4 -5 -5 -7 52 -100 138 -230 93 -138 146 -227 146 -244
0 -21 -7 -27 -37 -35 -38 -10 -38 -10 -7 -11 33 -1 127 -31 165 -53 l24 -13
-5 -180 c-5 -172 -6 -174 -8 -53 -1 70 -5 129 -9 131 -5 3 -7 -25 -7 -61 1
-37 0 -49 -2 -27 -9 92 -17 130 -23 110 -6 -19 -9 -19 -41 -7 l-35 13 35 -5
c31 -4 32 -4 12 6 -16 8 -29 8 -48 0 -14 -7 -44 -10 -67 -7 -42 4 -42 4 6 -6
26 -6 47 -15 47 -20 0 -5 10 -9 23 -8 22 0 22 0 -2 10 -36 14 -20 20 22 7 20
-6 37 -17 37 -25 0 -10 -30 -12 -157 -7 -87 4 -194 8 -238 9 -98 3 -109 5 -70
15 l30 9 -30 -2 c-30 -2 -30 -3 -37 -72 -4 -38 -11 -133 -15 -210 l-8 -140 -6
90 c-3 50 -6 72 -7 49 -1 -22 -8 -48 -15 -58 -12 -17 -14 -17 -28 0 -7 9 -13
19 -12 20 7 11 -12 34 -23 30 -28 -11 -130 93 -137 137 -4 30 0 38 36 79 31
33 67 90 67 104 0 9 -13 14 -37 14 -73 1 -106 20 -208 117 -24 23 -54 44 -65
48 -12 4 -25 18 -30 31 -6 14 -18 27 -27 31 -10 4 -27 17 -39 29 -12 12 -39
33 -60 47 -21 13 -48 34 -58 46 -11 11 -29 21 -40 21 -12 0 -32 9 -46 20 -14
11 -34 20 -46 20 -11 0 -30 11 -42 25 -12 14 -26 25 -30 25 -5 0 -15 11 -22
25 -7 13 -21 27 -31 30 -13 4 -17 15 -15 40 2 20 -1 32 -6 29 -5 -4 -7 -15 -5
-26 5 -18 4 -19 -12 -4 -10 9 -21 13 -26 9 -4 -5 -5 -2 -1 4 4 8 -4 24 -20 40
-14 16 -23 21 -19 13 6 -10 1 -8 -13 4 -23 20 -31 42 -10 30 7 -5 8 -3 4 5 -5
7 -10 10 -13 7 -9 -8 -60 58 -216 279 -31 44 -84 118 -118 165 -35 47 -85 119
-112 160 -28 41 -65 95 -84 119 l-33 44 25 21 c14 12 25 27 25 34 0 7 4 12 8
12 5 0 17 17 26 38 9 21 32 53 49 72 56 61 129 161 122 168 -4 4 -120 8 -259
10 l-251 3 -37 52 c-123 173 -372 532 -393 566 -9 16 7 8 39 -18 18 -15 19
-15 13 2 -6 17 3 23 17 10 3 -4 14 -8 22 -9 9 -2 39 -8 66 -14 27 -7 70 -9 96
-6 136 19 188 30 202 45 8 9 21 16 28 16 6 0 13 4 13 8 2 10 -37 79 -89 160
-20 31 -81 127 -136 212 -94 148 -99 155 -113 135 -8 -12 -63 -97 -122 -190
-58 -92 -169 -267 -246 -388 -214 -336 -391 -620 -487 -781 -48 -80 -93 -155
-101 -165 -13 -18 -29 -19 -328 -18 -395 2 -778 13 -784 22 -2 4 -5 110 -5
236 l-1 229 158 13 c87 6 211 15 277 20 l118 7 89 135 c49 74 122 185 161 247
40 61 138 211 218 333 285 437 645 996 701 1089 23 39 43 71 43 71 14 0 730
-92 749 -96 l27 -6 0 -161 0 -162 101 -155 c56 -85 157 -238 224 -340 67 -102
191 -291 275 -420 161 -248 178 -273 500 -765 190 -291 341 -519 507 -765 39
-58 79 -112 90 -120 17 -14 17 -14 2 5 -14 17 -18 80 -28 445 -6 234 -11 579
-11 768 0 226 -3 341 -10 337 -6 -4 -10 14 -11 47 0 34 -3 46 -8 34 -6 -17 -9
-16 -19 10 -6 16 -14 53 -17 82 -7 52 -25 73 -25 28 0 -14 -4 -28 -10 -31 -5
-3 -10 3 -10 13 0 11 -10 26 -21 34 -18 11 -23 28 -29 98 -18 192 19 433 54
358 3 -7 4 0 2 16 -3 22 2 34 20 48 13 11 23 22 23 26 -3 20 3 32 16 32 10 0
15 -11 16 -32 1 -28 3 -25 12 17 6 29 11 296 14 638 l3 588 25 11 c31 14 32
28 3 28 -20 0 -123 18 -613 105 -44 8 -141 25 -215 39 -257 47 -830 146 -845
146 -13 0 -15 -59 -15 -486 l0 -487 -72 7 c-91 8 -670 85 -674 89 -2 2 -4 223
-4 491 -1 370 1 491 10 496 9 6 9 9 -1 12 -12 4 -15 77 -17 401 -3 396 -3 397
-23 386 -11 -6 -27 -8 -35 -5 -8 3 -12 1 -9 -4 3 -5 -24 -24 -61 -41 -72 -34
-461 -235 -559 -289 -33 -18 -129 -68 -213 -111 -84 -43 -172 -90 -195 -103
-41 -24 -45 -24 -132 -14 l-89 11 -224 -114 -224 -114 4 -292 3 -292 25 -5
c14 -3 99 -15 190 -26 91 -11 180 -22 198 -25 l32 -6 0 -349 0 -350 68 -1 c37
-1 82 0 100 1 40 2 45 -26 5 -41 -14 -5 -40 -23 -57 -40 -28 -28 -92 -64 -107
-61 -4 1 -16 -9 -27 -21 -19 -20 -22 -41 -30 -217 l-9 -195 1 288 c1 329 10
305 -95 268 -30 -10 -123 -43 -207 -72 l-152 -53 0 -283 0 -283 22 -4 c20 -4
441 -26 536 -28 17 -1 32 -3 32 -5 0 -9 -36 -68 -55 -90 -11 -13 -38 -53 -60
-88 -22 -35 -71 -110 -110 -167 -38 -57 -72 -107 -75 -113 -5 -9 -40 -64 -48
-75 -1 -2 -8 2 -13 10 -8 11 -9 9 -4 -9 5 -16 4 -21 -4 -17 -6 4 -9 2 -6 -6 6
-17 -78 -134 -94 -131 -6 2 -11 -2 -11 -7 0 -6 -5 -10 -12 -10 -6 0 -9 3 -5 6
3 4 -1 21 -11 38 l-16 31 -7 -35 c-3 -19 -7 -27 -8 -17 -1 11 -9 17 -27 17
-19 0 -25 4 -20 15 4 12 -5 15 -54 15 -47 0 -60 -3 -60 -15 0 -11 -11 -15 -40
-15 -22 0 -40 -4 -40 -10 0 -14 -77 -13 -82 1 -6 19 -134 24 -176 6 -20 -9
-46 -17 -56 -19 -11 -2 -27 -16 -36 -33 -9 -16 -24 -30 -33 -29 -9 0 -53 1
-97 2 -64 2 -80 5 -80 17 0 9 -9 15 -24 15 -13 0 -29 7 -36 15 -17 21 -100 21
-100 0 0 -9 -9 -15 -25 -15 -22 0 -25 -4 -25 -40 0 -36 -3 -40 -25 -41 -70 -4
-85 -1 -85 16 0 11 -11 15 -40 15 -36 0 -40 -3 -40 -24 0 -24 -51 -86 -71 -86
-5 0 -9 -7 -9 -15 0 -12 -16 -15 -80 -15 -79 0 -80 0 -80 -25 0 -22 -4 -25
-42 -27 -37 -1 -39 -2 -10 -5 31 -4 32 -5 32 -54 l0 -49 -70 0 c-68 0 -70 -1
-70 -25 0 -20 -5 -25 -23 -25 -29 0 -57 -29 -57 -58 0 -21 -5 -22 -74 -22 -63
0 -75 3 -79 18 -4 16 -5 16 -6 0 -1 -12 -9 -18 -26 -18 -21 0 -25 -5 -25 -30
0 -16 5 -30 10 -30 6 0 10 -22 10 -50 0 -38 4 -50 15 -50 9 0 15 -9 15 -25 0
-22 -4 -25 -40 -25 -38 0 -40 -2 -40 -30 0 -16 -4 -30 -10 -30 -5 0 -10 7 -10
15 0 10 -10 15 -30 15 -20 0 -30 -5 -30 -15 0 -11 -11 -15 -40 -15 l-40 0 0
-65 0 -65 -40 0 c-29 0 -40 -4 -40 -15 0 -11 -11 -15 -40 -15 -29 0 -40 4 -40
15 0 9 9 15 25 15 23 0 25 4 25 40 0 36 -2 40 -25 40 -22 0 -25 -4 -25 -40 0
-29 -4 -40 -15 -40 -11 0 -15 -12 -15 -49 0 -41 -4 -53 -25 -69 -22 -18 -25
-27 -24 -83 0 -35 3 -58 6 -51 2 6 13 12 22 12 29 0 44 -70 36 -162 -5 -54 -4
-78 4 -78 7 0 11 28 11 80 l0 80 40 0 40 0 0 -40 c0 -36 -2 -40 -25 -40 -25 0
-25 -1 -25 -80 0 -64 -3 -80 -15 -80 -8 0 -15 -4 -15 -9 0 -12 -59 -71 -71
-71 -5 0 -9 -89 -9 -213 0 -201 1 -213 20 -225 11 -7 20 -8 20 -3 0 11 57 -15
66 -30 4 -7 -5 -9 -25 -6 -18 3 -29 1 -25 -4 3 -5 10 -7 15 -4 5 4 9 -1 9 -9
0 -12 10 -16 40 -16 22 0 40 -4 40 -10 0 -5 18 -10 40 -10 36 0 40 -2 40 -25
0 -16 11 -36 27 -51 26 -22 26 -25 11 -34 -17 -10 -16 -13 5 -34 12 -13 27
-21 33 -19 6 2 17 -3 24 -12 10 -12 10 -15 -4 -15 -24 0 -19 -19 10 -42 14
-11 23 -26 20 -33 -7 -18 87 -100 144 -126 46 -21 67 -49 38 -49 -7 0 -5 -5 5
-11 10 -6 35 -8 57 -4 22 4 49 3 62 -2 19 -6 14 -9 -27 -14 -46 -5 -44 -6 25
-7 74 -2 361 18 563 38 121 12 398 36 627 55 91 7 269 23 395 34 435 39 570
50 733 63 l162 12 0 33 c0 31 2 33 33 33 24 0 28 -3 17 -10 -12 -8 -12 -10 -1
-10 10 0 12 -8 7 -32 -8 -40 4 -30 15 14 6 25 7 21 2 -17 -3 -27 -6 -59 -7
-70 -1 -11 -12 -25 -26 -32 l-25 -12 28 -1 c15 0 27 -5 27 -10 0 -6 -4 -9 -9
-8 -5 2 -9 -1 -10 -7 -1 -5 3 -10 8 -10 5 0 13 -3 17 -8 11 -11 -17 -8 -58 7
-21 7 -39 11 -42 9 -8 -8 7 -37 29 -58 61 -55 106 -72 237 -91 62 -8 139 -22
170 -30 32 -8 65 -14 73 -14 9 0 32 -7 53 -15 29 -13 34 -18 22 -26 -11 -7 -7
-8 14 -3 19 5 27 3 23 -3 -4 -6 0 -14 9 -17 8 -3 12 -2 9 4 -9 15 0 12 40 -10
19 -11 35 -18 35 -15 0 2 44 -16 99 -39 159 -70 159 -70 290 -57 64 7 136 14
161 16 25 2 63 6 85 9 35 5 37 4 10 -4 -26 -8 -24 -9 15 -5 25 2 68 -3 96 -11
29 -8 74 -16 100 -19 27 -2 53 -4 58 -4 4 -1 6 -8 2 -16 -3 -9 0 -15 9 -15 8
0 15 -3 15 -8 0 -7 61 -23 143 -38 20 -3 37 -10 37 -15 0 -5 7 -9 16 -9 8 0
12 -5 9 -10 -4 -6 7 -10 24 -10 17 0 31 -4 31 -8 0 -10 127 -42 168 -42 18 0
42 -6 53 -13 17 -10 23 -9 26 1 3 9 13 6 35 -9 22 -16 32 -19 37 -10 6 9 17 7
42 -6 19 -10 36 -21 37 -25 5 -11 160 -10 164 1 2 5 38 12 81 16 67 6 77 5 77
-9 0 -14 16 -16 120 -16 73 0 120 4 120 10 0 6 22 10 49 10 41 0 53 -4 69 -25
20 -25 20 -25 191 -25 145 0 171 -2 171 -15 0 -12 16 -15 80 -15 79 0 80 0 80
-25 0 -22 4 -25 40 -25 29 0 40 4 40 15 0 11 11 15 40 15 38 0 40 -2 40 -30 0
-29 2 -30 43 -30 54 0 67 13 67 67 0 39 2 43 25 43 14 0 25 5 25 10 0 6 18 10
40 10 22 0 40 -4 40 -10 0 -5 14 -10 30 -10 20 0 30 5 30 15 0 21 20 19 20 -2
1 -13 5 -10 16 10 18 33 29 34 45 6 8 -16 8 -23 0 -29 -9 -5 -8 -10 4 -20 13
-11 15 -8 15 19 l0 31 120 0 c103 0 120 -2 120 -16 0 -13 9 -15 43 -13 38 4
43 2 39 -13 -4 -15 3 -18 37 -18 22 0 41 -4 41 -10 0 -5 18 -10 40 -10 29 0
40 -4 40 -15 0 -8 4 -15 9 -15 12 0 71 -59 71 -71 0 -5 19 -9 43 -9 l43 0 -4
40 -4 40 41 0 c37 0 41 -2 41 -25 0 -22 4 -25 40 -25 22 0 40 5 40 10 0 6 18
10 40 10 29 0 40 4 40 15 0 11 11 15 40 15 29 0 40 -4 40 -15 0 -11 11 -15 40
-15 29 0 40 4 40 15 0 8 5 15 10 15 6 0 10 -16 10 -35 0 -19 3 -35 8 -36 4 0
15 -2 25 -4 12 -2 17 3 17 20 0 12 3 37 6 54 6 28 10 31 45 31 28 0 39 -4 39
-15 0 -9 9 -15 25 -15 23 0 25 -4 25 -40 0 -29 4 -40 15 -40 9 0 15 9 15 25 0
23 4 25 40 25 29 0 40 4 40 15 0 12 16 15 80 15 52 0 80 4 80 11 0 6 11 20 25
31 31 24 32 46 3 44 -15 -1 -24 6 -26 18 -3 16 1 18 37 14 23 -2 41 0 41 4 0
5 54 8 120 8 100 0 120 3 120 15 0 8 -7 15 -16 15 -14 0 -14 3 -4 15 8 9 30
15 56 15 42 0 44 -1 44 -30 0 -28 2 -30 40 -30 29 0 40 4 40 15 0 9 9 15 25
15 23 0 25 3 25 49 0 41 -4 53 -25 69 -15 12 -25 30 -25 46 l0 26 -92 2 c-80
1 -86 2 -43 8 l50 7 -41 1 c-23 1 -47 9 -54 17 -11 13 -5 15 44 15 43 0 56 3
56 15 0 11 -11 15 -40 15 -22 0 -40 5 -40 10 0 6 -48 10 -125 10 -104 0 -125
2 -125 15 0 8 -8 15 -18 15 -10 0 -23 5 -30 12 -6 6 -37 12 -69 14 -85 3 -113
17 -113 54 l0 30 -85 0 c-79 0 -88 2 -109 25 -26 28 -46 32 -46 10 0 -22 -71
-20 -90 3 -77 91 -72 83 -53 104 10 11 38 30 63 42 25 12 54 27 65 33 11 6 40
21 65 33 25 13 47 24 49 26 8 6 -28 34 -72 54 -25 12 -61 36 -79 53 -49 46
-99 71 -109 56 -6 -10 -11 -10 -22 -1 -7 7 -16 9 -19 7 -3 -3 -17 0 -31 6
l-26 12 35 24 c20 13 41 20 47 16 9 -5 9 -3 0 8 -10 12 -9 15 5 16 21 1 198
23 232 29 14 2 48 6 75 9 28 3 73 8 100 11 28 4 75 8 105 10 127 6 220 16 220
23 0 7 193 28 333 36 38 2 71 6 75 9 3 3 24 6 46 6 78 1 266 52 266 72 0 4 20
8 45 8 26 0 60 7 78 16 20 11 32 13 35 6 2 -6 10 -8 18 -5 7 3 11 9 8 14 -3 5
4 9 14 9 11 0 33 7 48 15 16 8 36 15 45 15 9 0 32 6 50 14 19 7 40 11 48 8 10
-3 12 0 7 13 -6 16 -1 17 58 12 35 -3 67 -3 71 1 4 4 26 8 50 8 23 1 48 4 54
8 8 5 11 342 11 1231 l0 1224 -37 3 c-31 2 -39 7 -41 26 -3 18 -10 22 -43 22
-28 0 -39 4 -39 15 0 12 16 15 80 15 l80 0 0 209 0 209 -27 30 c-16 16 -34 37
-40 45 -15 19 -17 71 -3 62 6 -3 13 1 16 9 3 9 10 16 16 16 5 0 6 -4 3 -10 -3
-5 3 -10 14 -10 20 0 21 5 21 146 0 80 -4 153 -9 162 -16 32 -20 112 -5 127
10 10 14 42 14 114 0 94 -1 101 -20 101 -18 0 -20 7 -20 71 0 62 2 71 20 76
20 5 20 14 20 1844 l0 1839 -2064 0 c-1825 0 -2065 -2 -2070 -15 -3 -9 -18
-15 -36 -15 -16 0 -30 -4 -30 -10 0 -5 -9 -10 -20 -10 -15 0 -20 7 -20 25 0
24 -2 25 -65 25 -36 0 -65 -4 -65 -8z m290 -57 c0 -8 -7 -15 -15 -15 -16 0
-20 12 -8 23 11 12 23 8 23 -8z m160 -563 c0 -4 -16 -8 -35 -8 -19 0 -35 4
-35 8 0 4 16 8 35 8 19 0 35 -4 35 -8z m400 -526 c0 -19 -3 -41 -6 -50 -7 -17
-54 -22 -54 -6 0 6 7 10 15 10 11 0 15 11 15 40 0 29 4 40 15 40 10 0 15 -10
15 -34z m87 -108 c-2 -13 -4 -3 -4 22 0 25 2 35 4 23 2 -13 2 -33 0 -45z m-23
-24 c12 -5 16 -21 16 -75 0 -79 -2 -81 -100 -76 l-55 3 -3 47 -3 47 35 0 c31
0 36 3 36 24 0 32 34 45 74 30z m576 -459 c0 -8 -9 -15 -20 -15 -11 0 -20 7
-20 15 0 8 9 15 20 15 11 0 20 -7 20 -15z m-473 -237 c-2 -13 -4 -3 -4 22 0
25 2 35 4 23 2 -13 2 -33 0 -45z m633 -798 c0 -23 -4 -30 -20 -30 -11 0 -20 5
-20 10 0 6 -9 10 -20 10 -13 0 -20 7 -20 20 0 17 7 20 40 20 38 0 40 -2 40
-30z m-250 -30 c11 -8 7 -9 -15 -4 -37 8 -45 14 -19 14 10 0 26 -5 34 -10z
m53 3 c-7 -2 -19 -2 -25 0 -7 3 -2 5 12 5 14 0 19 -2 13 -5z m40 -20 c-7 -2
-21 -2 -30 0 -10 3 -4 5 12 5 17 0 24 -2 18 -5z m315 -64 c-2 -6 -8 -10 -13
-10 -5 0 -11 4 -13 10 -2 6 4 11 13 11 9 0 15 -5 13 -11z m1472 -349 c0 -29
-4 -40 -15 -40 -11 0 -15 11 -15 40 0 29 4 40 15 40 11 0 15 -11 15 -40z
m-270 -25 c0 -11 -11 -15 -40 -15 -29 0 -40 4 -40 15 0 11 11 15 40 15 29 0
40 -4 40 -15z m-670 -375 c0 -22 -4 -40 -10 -40 -5 0 -10 18 -10 40 0 22 5 40
10 40 6 0 10 -18 10 -40z m830 -65 l0 -55 -55 0 -55 0 0 43 c0 24 5 48 12 55
7 7 31 12 55 12 l43 0 0 -55z m160 40 c0 -8 7 -15 15 -15 8 0 15 -9 15 -20 0
-11 -7 -20 -15 -20 -8 0 -15 9 -15 20 0 11 -7 20 -15 20 -8 0 -15 -9 -15 -20
0 -11 -4 -20 -10 -20 -6 0 -10 -27 -10 -60 0 -47 -3 -60 -15 -60 -12 0 -15 17
-15 95 l0 95 40 0 c29 0 40 -4 40 -15z m-320 -160 c0 -11 -11 -15 -40 -15
l-40 0 0 -40 0 -40 -55 0 -55 0 0 -40 0 -40 -105 0 -105 0 0 40 0 40 40 0 c29
0 40 4 40 15 0 11 -11 15 -40 15 -29 0 -40 -4 -40 -15 0 -11 -11 -15 -40 -15
-29 0 -40 -4 -40 -15 0 -11 -11 -15 -40 -15 l-40 0 0 -65 0 -65 40 0 c22 0 40
-4 40 -10 0 -5 -18 -10 -39 -10 -36 0 -40 -3 -43 -27 -3 -24 -8 -28 -40 -31
l-38 -3 0 40 0 41 -40 0 -40 0 0 70 0 70 95 0 c102 0 103 0 178 72 15 15 30
27 32 28 3 0 79 0 170 0 140 0 165 2 165 15 0 11 11 15 40 15 29 0 40 -4 40
-15z m400 -95 c0 -28 -2 -30 -39 -30 -35 0 -39 -3 -43 -29 -3 -24 -1 -29 14
-26 15 3 18 -3 18 -36 0 -28 -4 -39 -15 -39 -11 0 -15 -11 -15 -40 l0 -40
-160 0 -160 0 0 -40 0 -40 -40 0 -40 0 0 40 0 40 40 0 40 0 0 40 0 40 -80 0
c-47 0 -80 4 -80 10 0 6 18 10 40 10 39 0 40 1 40 33 0 32 1 32 40 29 39 -4
40 -5 40 -43 l0 -39 95 0 95 0 0 39 c0 29 5 41 18 44 13 4 11 5 -5 6 -19 1
-23 7 -23 36 0 32 2 35 30 35 20 0 30 -5 30 -15 0 -11 11 -15 40 -15 38 0 40
2 40 30 0 28 2 30 40 30 38 0 40 -2 40 -30z m-494 -93 c4 -4 -9 -7 -30 -7 -20
0 -35 4 -32 8 6 10 52 9 62 -1z m-1213 -87 c7 -27 25 -25 30 3 3 16 5 14 6 -9
2 -48 -10 -94 -24 -94 -7 0 -19 27 -28 60 -12 47 -12 60 -2 60 7 0 15 -9 18
-20z m1817 16 c0 -2 -7 -9 -15 -16 -12 -10 -15 -10 -15 4 0 9 7 16 15 16 8 0
15 -2 15 -4z m-738 -77 c6 -4 24 -5 39 -2 29 4 29 4 29 -51 0 -38 4 -56 13
-56 8 0 7 -4 -3 -10 -11 -7 -4 -10 28 -10 31 0 42 -4 42 -15 0 -12 16 -15 80
-15 64 0 80 -3 80 -15 0 -11 -11 -15 -40 -15 -36 0 -40 -2 -40 -25 0 -25 -1
-25 -80 -25 l-80 0 0 30 c0 27 -3 30 -33 30 -29 0 -33 3 -35 30 -2 26 1 30 23
30 14 0 25 3 25 6 0 9 -28 34 -39 34 -12 0 -24 -38 -21 -66 1 -11 2 -36 1 -56
-1 -37 -2 -38 -41 -38 l-40 0 0 40 c0 29 -4 40 -15 40 -11 0 -15 11 -15 40 0
29 -4 40 -15 40 -10 0 -15 11 -15 35 0 19 -4 35 -10 35 -5 0 -10 -9 -10 -20 0
-27 -14 -25 -38 5 -22 28 -42 33 -42 10 0 -11 -11 -15 -40 -15 -29 0 -40 4
-40 15 0 11 11 15 40 15 31 0 40 4 40 17 0 15 1 15 18 0 23 -21 62 -22 62 -2
0 11 11 15 40 15 29 0 40 -4 40 -15 0 -10 11 -15 35 -15 31 0 35 3 36 28 2 27
2 27 6 2 3 -14 10 -28 15 -31z m-652 -24 c0 -22 -4 -25 -40 -25 -29 0 -40 -4
-40 -15 0 -11 -11 -15 -40 -15 l-40 0 0 40 0 40 80 0 c79 0 80 0 80 -25z m80
-80 l0 -55 80 0 80 0 0 -40 0 -40 -40 0 c-29 0 -40 -4 -40 -15 0 -11 -11 -15
-40 -15 -38 0 -40 2 -40 30 0 28 -2 30 -40 30 -29 0 -40 -4 -40 -15 0 -12 -16
-15 -80 -15 l-80 0 0 -40 0 -40 -64 0 c-48 0 -65 -4 -70 -15 -3 -10 -19 -15
-46 -15 -29 0 -40 4 -40 15 0 8 7 15 15 15 11 0 15 11 15 40 0 29 4 40 15 40
11 0 15 11 15 40 l0 40 40 0 c36 0 40 3 40 25 0 23 3 25 49 25 41 0 53 -4 69
-25 15 -18 29 -25 56 -25 35 0 36 1 36 40 0 29 4 40 15 40 8 0 15 7 15 15 0
11 11 15 40 15 l40 0 0 -55z m-4634 27 c7 -4 -34 -75 -115 -199 -69 -106 -166
-254 -216 -330 l-90 -138 -5 270 c-4 190 -3 274 5 283 9 10 253 90 351 115 30
8 58 7 70 -1z m4109 -167 c-4 -42 -10 -74 -12 -71 -3 2 -2 39 2 81 4 42 10 74
12 71 3 -2 2 -39 -2 -81z m42 23 c-2 -13 -4 -3 -4 22 0 25 2 35 4 23 2 -13 2
-33 0 -45z m1603 22 c0 -5 -18 -10 -40 -10 -22 0 -40 5 -40 10 0 6 18 10 40
10 22 0 40 -4 40 -10z m-703 -57 c-16 -16 -18 -16 -34 0 -16 16 -15 17 17 17
32 0 33 -1 17 -17z m-897 -55 c0 -5 -4 -8 -10 -8 -5 0 -10 10 -10 23 0 18 2
19 10 7 5 -8 10 -18 10 -22z m160 -90 c0 -30 -1 -31 -16 -16 -9 9 -14 24 -11
32 11 27 27 17 27 -16z m1680 -118 c0 -5 -18 -10 -40 -10 -22 0 -40 5 -40 10
0 6 18 10 40 10 22 0 40 -4 40 -10z m-977 -127 c-13 -2 -33 -2 -45 0 -13 2 -3
4 22 4 25 0 35 -2 23 -4z m1375 -203 c-2 -6 -8 -6 -18 0 -13 9 -13 11 0 20 15
10 25 0 18 -20z m-7465 -845 c-3 -9 -8 -14 -10 -11 -3 3 -2 9 2 15 9 16 15 13
8 -4z m-29 -21 c3 -8 2 -12 -4 -9 -6 3 -10 10 -10 16 0 14 7 11 14 -7z m1441
-564 l-60 -7 75 -2 c52 -2 69 -5 55 -11 -15 -7 -10 -9 25 -10 32 -1 39 -4 26
-9 -28 -11 -11 -17 69 -29 72 -10 80 -11 155 -16 27 -2 46 -9 48 -17 3 -10 1
-10 -7 1 -9 13 -11 13 -11 -2 0 -12 7 -17 23 -15 12 1 21 -3 20 -9 -1 -6 4
-11 12 -11 9 0 7 10 -9 31 -29 39 -39 56 -32 56 14 0 76 -96 71 -109 -3 -9 -3
-12 1 -8 9 9 54 -32 54 -50 0 -7 4 -13 8 -13 11 0 73 -86 76 -105 1 -8 6 -18
11 -22 4 -4 5 -2 1 5 -4 6 -5 12 -2 12 10 0 40 -65 37 -79 -1 -7 2 -10 8 -7 5
4 12 2 15 -2 10 -16 -34 -8 -45 8 -9 13 -10 12 -5 -2 4 -13 0 -18 -15 -18 -11
0 -17 5 -14 10 3 6 -4 10 -15 10 -14 0 -20 -5 -17 -12 3 -10 -20 -14 -92 -15
-103 -3 -209 -9 -308 -19 -35 -4 -87 -3 -117 0 l-55 7 -90 122 -91 122 0 113
0 112 128 -2 c101 -1 115 -3 67 -8z m-921 -538 c-13 -3 -439 55 -461 63 -10 3
-13 57 -13 221 l0 218 244 -250 c134 -137 238 -250 230 -252z m417 471 c-6
-10 -22 -31 -36 -48 -20 -23 -19 -18 6 18 32 46 49 63 30 30z m-61 -87 c0 -3
-4 -8 -10 -11 -5 -3 -10 -1 -10 4 0 6 5 11 10 11 6 0 10 -2 10 -4z m-49 -63
c-12 -20 -14 -14 -5 12 4 9 9 14 11 11 3 -2 0 -13 -6 -23z m-61 -86 c0 -2 -10
-12 -21 -23 -22 -19 -22 -19 -8 4 12 19 29 30 29 19z m1454 -197 c109 -22 117
-25 175 -75 35 -28 40 -36 26 -41 -13 -5 -14 -9 -4 -15 10 -6 14 -69 15 -279
2 -255 1 -273 -17 -291 -19 -19 -19 -18 -20 14 l-1 32 -8 -30 c-4 -16 -8 -24
-9 -17 0 6 -10 12 -21 12 -15 0 -20 -7 -20 -25 0 -14 -5 -25 -11 -25 -5 0 -8
4 -5 9 3 5 -1 24 -9 42 -8 20 -14 26 -15 16 0 -11 -15 -23 -40 -33 -22 -9 -40
-20 -40 -24 0 -4 -15 -10 -32 -14 -25 -5 -29 -9 -19 -16 12 -6 6 -14 -25 -32
-21 -13 -42 -24 -46 -24 -5 -1 -14 -3 -20 -4 -7 -1 -2 -6 12 -10 21 -7 18 -8
-20 -9 -25 -1 -56 -4 -69 -8 -16 -4 -22 -2 -18 4 5 7 -1 9 -15 5 -40 -10 9
-19 92 -16 l75 3 -85 -10 c-47 -6 -120 -11 -162 -12 -43 -1 -78 -5 -78 -9 0
-5 -18 -8 -40 -8 l-40 0 0 374 c0 410 4 386 -60 386 -16 0 -30 6 -33 13 -16
45 -22 -50 -25 -379 -2 -222 -7 -374 -12 -374 -9 0 -73 19 -270 81 -36 11 -96
33 -135 49 -38 16 -87 32 -108 35 l-39 8 4 136 c2 77 8 145 15 156 6 11 17 47
24 80 7 33 16 62 19 65 4 3 12 27 19 54 7 28 27 80 44 118 31 67 32 68 71 68
22 0 78 5 125 11 94 11 407 25 622 27 102 2 161 -3 233 -18z m-1624 -14 c0 -2
-8 -10 -17 -17 -16 -13 -17 -12 -4 4 13 16 21 21 21 13z m-2760 -260 c0 -3 -4
-8 -10 -11 -5 -3 -10 -1 -10 4 0 6 5 11 10 11 6 0 10 -2 10 -4z m-70 -310 c0
-2 -7 -9 -15 -16 -12 -10 -15 -10 -15 4 0 9 7 16 15 16 8 0 15 -2 15 -4z
m7238 -23 c-10 -2 -26 -2 -35 0 -10 3 -2 5 17 5 19 0 27 -2 18 -5z m-123 -13
c-33 -4 -98 -10 -145 -13 l-85 -6 90 13 c50 7 115 13 145 13 l55 0 -60 -7z
m-268 -26 c-3 -3 -12 -4 -19 -1 -8 3 -5 6 6 6 11 1 17 -2 13 -5z m2878 -34 c3
-5 1 -10 -4 -10 -6 0 -11 5 -11 10 0 6 2 10 4 10 3 0 8 -4 11 -10z m-6100
-154 c130 -78 192 -104 274 -116 59 -9 85 -9 90 -2 4 6 62 13 141 16 161 7
313 21 433 41 48 8 92 15 97 15 6 0 9 -50 8 -132 -1 -73 -3 -114 -5 -90 -2 23
-8 42 -14 42 -5 0 -10 -19 -11 -42 l-1 -43 -4 43 c-5 47 -18 55 -27 17 -4 -14
-11 -23 -16 -20 -5 3 -15 -3 -22 -15 -7 -11 -18 -20 -25 -20 -7 0 -13 -4 -13
-9 0 -5 -15 -14 -32 -21 l-33 -11 22 -18 c20 -17 21 -19 5 -25 -36 -14 -73
-38 -85 -57 -10 -15 -23 -19 -74 -19 -55 0 -65 -3 -92 -31 -17 -17 -31 -35
-31 -40 0 -5 -18 -9 -40 -9 -29 0 -40 -4 -40 -15 0 -11 -11 -15 -39 -15 -29 0
-41 -5 -44 -17 -3 -10 -5 -3 -6 15 -1 20 3 31 9 27 6 -3 7 1 3 10 -5 13 -7 14
-14 3 -5 -8 -9 10 -11 47 l-1 60 -7 -60 c-7 -59 -7 -60 -10 -15 l-3 45 -7 -50
c-5 -27 -9 -116 -9 -197 -1 -82 -3 -148 -7 -148 -6 0 -385 168 -400 178 -18
11 -24 702 -6 702 4 0 25 -11 47 -24z m2545 -296 c0 -5 -4 -10 -10 -10 -5 0
-10 5 -10 10 0 6 5 10 10 10 6 0 10 -4 10 -10z m-1503 -132 c-2 -24 -4 -7 -4
37 0 44 2 63 4 43 2 -21 2 -57 0 -80z m-4167 -128 c-8 -5 -24 -9 -35 -9 -16 1
-16 2 5 9 35 11 48 11 30 0z m3520 -30 c2 35 4 38 7 16 3 -15 2 -40 -2 -54 -9
-37 -25 -8 -23 43 l1 40 7 -45 7 -45 3 45z m4040 -49 c0 -18 -18 -21 -30 -6
-10 13 -9 15 9 15 11 0 21 -4 21 -9z m-4566 -60 c4 -5 -3 -7 -14 -4 -23 6 -26
13 -6 13 8 0 17 -4 20 -9z m5076 -81 c0 -5 -9 -10 -21 -10 -11 0 -17 5 -14 10
3 6 13 10 21 10 8 0 14 -4 14 -10z"/>
<path d="M4241 3594 c0 -11 3 -14 6 -6 3 7 2 16 -1 19 -3 4 -6 -2 -5 -13z"/>
<path d="M4326 3515 c-9 -26 -7 -32 5 -12 6 10 9 21 6 23 -2 3 -7 -2 -11 -11z"/>
<path d="M3655 2885 c0 -198 1 -280 2 -183 2 97 2 259 0 360 -1 101 -2 21 -2
-177z"/>
<path d="M4378 2473 c7 -3 16 -2 19 1 4 3 -2 6 -13 5 -11 0 -14 -3 -6 -6z"/>
<path d="M4218 2463 c7 -3 16 -2 19 1 4 3 -2 6 -13 5 -11 0 -14 -3 -6 -6z"/>
<path d="M4098 2423 c7 -3 16 -2 19 1 4 3 -2 6 -13 5 -11 0 -14 -3 -6 -6z"/>
<path d="M5970 9960 c0 -29 4 -40 15 -40 11 0 15 11 15 40 0 29 -4 40 -15 40
-11 0 -15 -11 -15 -40z"/>
<path d="M6083 9960 c0 -25 2 -35 4 -22 2 12 2 32 0 45 -2 12 -4 2 -4 -23z"/>
<path d="M5760 9905 c0 -11 11 -15 40 -15 29 0 40 4 40 15 0 11 -11 15 -40 15
-29 0 -40 -4 -40 -15z"/>
<path d="M6030 9680 c0 -47 4 -80 10 -80 6 0 10 33 10 80 0 47 -4 80 -10 80
-6 0 -10 -33 -10 -80z"/>
<path d="M5890 9236 c0 -26 6 -48 15 -56 13 -11 15 -5 15 44 0 43 -3 56 -15
56 -11 0 -15 -12 -15 -44z"/>
<path d="M6110 9163 c1 -29 7 -42 25 -56 22 -15 25 -16 25 -2 0 8 -7 15 -15
15 -11 0 -15 11 -15 40 0 22 -4 40 -10 40 -5 0 -10 -17 -10 -37z"/>
<path d="M6290 9080 c0 -29 4 -40 15 -40 11 0 15 11 15 40 0 29 -4 40 -15 40
-11 0 -15 -11 -15 -40z"/>
<path d="M6400 8981 c0 -5 6 -12 13 -14 6 -3 -7 -6 -30 -6 l-43 -1 0 -40 0
-40 70 0 71 0 -2 55 -2 55 -39 0 c-21 0 -38 -4 -38 -9z"/>
<path d="M6320 8215 l0 -55 40 0 40 0 0 55 0 55 -40 0 -40 0 0 -55z"/>
<path d="M6616 7984 c-3 -9 -6 -22 -6 -31 0 -13 2 -13 15 1 16 16 20 46 6 46
-5 0 -12 -7 -15 -16z"/>
<path d="M6640 7930 c0 -5 5 -10 10 -10 6 0 10 5 10 10 0 6 -4 10 -10 10 -5 0
-10 -4 -10 -10z"/>
<path d="M4678 7903 c7 -3 16 -2 19 1 4 3 -2 6 -13 5 -11 0 -14 -3 -6 -6z"/>
<path d="M4785 7890 c-16 -7 -17 -9 -3 -9 9 -1 20 4 23 9 7 11 7 11 -20 0z"/>
<path d="M5008 7843 c7 -3 16 -2 19 1 4 3 -2 6 -13 5 -11 0 -14 -3 -6 -6z"/>
<path d="M5068 7833 c7 -3 16 -2 19 1 4 3 -2 6 -13 5 -11 0 -14 -3 -6 -6z"/>
<path d="M6570 7808 c0 -18 -3 -43 -6 -55 -6 -21 -3 -23 36 -23 39 0 42 2 36
23 -3 12 -6 37 -6 55 0 29 -3 32 -30 32 -27 0 -30 -3 -30 -32z"/>
<path d="M6640 7800 c0 -29 4 -40 15 -40 11 0 15 11 15 40 0 29 -4 40 -15 40
-11 0 -15 -11 -15 -40z"/>
<path d="M6770 7801 c0 -23 -5 -41 -12 -44 -9 -3 -8 -10 6 -26 15 -16 31 -21
68 -21 l48 0 0 34 c0 42 -49 96 -86 96 -21 0 -24 -4 -24 -39z"/>
<path d="M5118 7823 c7 -3 16 -2 19 1 4 3 -2 6 -13 5 -11 0 -14 -3 -6 -6z"/>
<path d="M5165 7820 c-13 -6 -15 -9 -5 -9 8 0 22 4 30 9 18 12 2 12 -25 0z"/>
<path d="M5213 7803 c9 -2 23 -2 30 0 6 3 -1 5 -18 5 -16 0 -22 -2 -12 -5z"/>
<path d="M5353 7803 c9 -2 25 -2 35 0 9 3 1 5 -18 5 -19 0 -27 -2 -17 -5z"/>
<path d="M6221 7777 c-12 -15 -11 -17 3 -17 12 0 16 -10 16 -40 0 -31 -4 -40
-17 -40 -10 0 -25 -5 -33 -11 -11 -7 -5 -8 21 -3 43 7 62 -11 27 -25 -18 -8
-19 -10 -5 -10 10 -1 20 -8 23 -16 4 -8 13 -15 21 -15 13 0 13 3 3 15 -9 11
-10 19 -1 28 8 10 7 17 -1 25 -9 9 -6 12 15 12 22 0 27 5 27 24 0 13 7 26 15
30 33 12 12 26 -39 26 -43 0 -55 4 -58 17 -3 15 -4 15 -17 0z"/>
<path d="M5478 7753 c7 -3 16 -2 19 1 4 3 -2 6 -13 5 -11 0 -14 -3 -6 -6z"/>
<path d="M5680 7750 c-14 -4 -18 -8 -10 -9 8 -1 33 -6 54 -12 30 -8 36 -13 25
-21 -11 -8 -11 -9 3 -4 16 5 49 -2 91 -19 10 -4 17 -3 17 4 0 6 -6 10 -12 9
-8 -2 -12 5 -10 16 3 17 -1 18 -36 14 -22 -3 -46 -2 -53 3 -10 6 -8 9 9 9 13
0 20 4 17 10 -4 7 -12 7 -25 0 -10 -5 -27 -10 -37 -9 -16 0 -16 1 2 9 25 11
-1 11 -35 0z m143 -37 c-7 -2 -21 -2 -30 0 -10 3 -4 5 12 5 17 0 24 -2 18 -5z"/>
<path d="M6400 7736 c0 -13 -7 -26 -15 -30 -22 -8 -18 -26 5 -26 17 0 20 7 20
40 0 22 -2 40 -5 40 -3 0 -5 -11 -5 -24z"/>
<path d="M6473 7720 c0 -25 2 -35 4 -22 2 12 2 32 0 45 -2 12 -4 2 -4 -23z"/>
<path d="M5538 7743 c12 -2 32 -2 45 0 12 2 2 4 -23 4 -25 0 -35 -2 -22 -4z"/>
<path d="M5628 7733 c7 -3 16 -2 19 1 4 3 -2 6 -13 5 -11 0 -14 -3 -6 -6z"/>
<path d="M5693 7713 c9 -2 23 -2 30 0 6 3 -1 5 -18 5 -16 0 -22 -2 -12 -5z"/>
<path d="M5918 7673 c7 -3 16 -2 19 1 4 3 -2 6 -13 5 -11 0 -14 -3 -6 -6z"/>
<path d="M6936 7664 c-11 -29 -7 -64 9 -64 8 0 15 -4 15 -10 0 -5 17 -10 39
-10 35 0 39 -3 39 -26 0 -17 -8 -28 -21 -33 -18 -7 -15 -9 18 -15 22 -4 51
-10 65 -12 20 -5 22 -3 10 5 -11 8 -3 11 35 11 l50 0 -3 45 c-4 42 -6 45 -32
45 -22 0 -30 -5 -33 -22 -3 -14 -5 -9 -6 15 -1 36 -2 37 -40 37 -25 0 -41 5
-45 15 -3 9 -19 15 -41 15 -19 0 -35 5 -35 10 0 16 -17 12 -24 -6z m131 -150
c-3 -3 -12 -4 -19 -1 -8 3 -5 6 6 6 11 1 17 -2 13 -5z"/>
<path d="M6010 7660 c-11 -7 -2 -9 30 -5 33 4 40 3 25 -4 -24 -11 -10 -13 24
-4 23 6 23 7 5 14 -27 11 -67 10 -84 -1z"/>
<path d="M6154 7648 c-3 -5 -15 -8 -27 -9 -12 0 -16 -3 -9 -6 7 -3 20 -2 30 3
9 4 24 6 33 5 8 -1 26 3 40 8 20 7 17 9 -19 7 -24 0 -46 -4 -48 -8z"/>
<path d="M6882 7630 c0 -19 2 -27 5 -17 2 9 2 25 0 35 -3 9 -5 1 -5 -18z"/>
<path d="M6305 7641 c-3 -5 -1 -12 5 -16 5 -3 10 1 10 9 0 18 -6 21 -15 7z"/>
<path d="M6168 7623 c6 -2 18 -2 25 0 6 3 1 5 -13 5 -14 0 -19 -2 -12 -5z"/>
<path d="M6218 7613 c7 -3 16 -2 19 1 4 3 -2 6 -13 5 -11 0 -14 -3 -6 -6z"/>
<path d="M6311 7596 c2 -2 20 -6 39 -10 25 -4 31 -3 20 4 -14 9 -69 15 -59 6z"/>
<path d="M6438 7593 c7 -3 16 -2 19 1 4 3 -2 6 -13 5 -11 0 -14 -3 -6 -6z"/>
<path d="M6601 7591 c-10 -6 -10 -10 -1 -16 13 -8 24 -1 19 14 -3 6 -10 7 -18
2z"/>
<path d="M6682 7593 c-10 -4 -5 -11 15 -24 32 -22 30 -23 -15 -10 -21 7 -43 6
-59 0 -17 -6 -30 -6 -38 1 -9 7 -25 8 -47 2 l-33 -9 46 -7 c27 -4 58 -2 74 4
15 6 30 8 33 5 3 -2 -5 -8 -18 -13 -17 -6 8 -14 103 -31 92 -17 131 -20 144
-12 17 10 17 10 1 11 -10 0 -18 8 -18 18 0 9 -12 29 -25 45 -27 30 -84 38
-104 13 -12 -15 -55 -10 -45 5 6 10 5 10 -14 2z m18 -53 c13 -8 13 -10 -2 -10
-9 0 -20 5 -23 10 -8 13 5 13 25 0z m113 -27 c-7 -2 -19 -2 -25 0 -7 3 -2 5
12 5 14 0 19 -2 13 -5z m44 -9 c-3 -3 -12 -4 -19 -1 -8 3 -5 6 6 6 11 1 17 -2
13 -5z"/>
<path d="M6439 7569 c25 -5 58 -5 75 -1 22 6 10 8 -45 8 -67 1 -70 0 -30 -7z"/>
<path d="M7848 7435 l-3 -75 28 0 27 0 0 75 c0 73 -1 75 -24 75 -23 0 -25 -3
-28 -75z"/>
<path d="M6905 7490 c-3 -5 -1 -10 4 -10 6 0 11 5 11 10 0 6 -2 10 -4 10 -3 0
-8 -4 -11 -10z"/>
<path d="M7478 7403 c6 -2 18 -2 25 0 6 3 1 5 -13 5 -14 0 -19 -2 -12 -5z"/>
<path d="M7522 7340 c0 -14 2 -19 5 -12 2 6 2 18 0 25 -3 6 -5 1 -5 -13z"/>
<path d="M7890 7160 c0 -29 4 -40 15 -40 11 0 15 -11 15 -40 l0 -40 40 0 40 0
0 -40 0 -40 -40 0 c-29 0 -40 -4 -40 -15 0 -11 11 -15 40 -15 29 0 40 4 40 15
0 11 11 15 40 15 l40 0 0 -40 c0 -29 -4 -40 -15 -40 -11 0 -15 -11 -15 -40 l0
-40 95 0 c57 0 95 -4 95 -10 0 -5 18 -10 39 -10 43 0 51 10 51 66 0 27 -4 34
-20 34 -17 0 -20 7 -20 40 0 29 4 40 15 40 11 0 15 11 15 40 l0 40 -80 0 -80
0 0 40 0 40 -55 0 -55 0 0 40 0 40 -80 0 -80 0 0 -40z m300 -240 c0 -29 -4
-40 -15 -40 -11 0 -15 11 -15 40 0 29 4 40 15 40 11 0 15 -11 15 -40z"/>
<path d="M7760 7055 c0 -11 11 -15 40 -15 29 0 40 4 40 15 0 11 -11 15 -40 15
-29 0 -40 -4 -40 -15z"/>
<path d="M7663 7000 c0 -25 2 -35 4 -22 2 12 2 32 0 45 -2 12 -4 2 -4 -23z"/>
<path d="M8460 6920 c0 -29 -4 -40 -15 -40 -11 0 -15 -11 -15 -40 0 -29 4 -40
15 -40 10 0 15 -11 15 -35 0 -19 5 -35 10 -35 7 0 10 40 8 115 -1 63 -6 115
-10 115 -5 0 -8 -18 -8 -40z"/>
<path d="M7740 6415 c-10 -12 -10 -15 4 -15 9 0 16 7 16 15 0 8 -2 15 -4 15
-2 0 -9 -7 -16 -15z"/>
<path d="M7810 6360 c0 -29 4 -40 15 -40 11 0 15 11 15 40 0 29 -4 40 -15 40
-11 0 -15 -11 -15 -40z"/>
<path d="M7760 6265 c0 -22 4 -25 40 -25 36 0 40 3 40 25 0 23 -4 25 -40 25
-36 0 -40 -2 -40 -25z"/>
<path d="M2748 5863 c7 -3 16 -2 19 1 4 3 -2 6 -13 5 -11 0 -14 -3 -6 -6z"/>
<path d="M6503 5325 c0 -22 2 -30 4 -17 2 12 2 30 0 40 -3 9 -5 -1 -4 -23z"/>
<path d="M6501 5054 c0 -11 3 -14 6 -6 3 7 2 16 -1 19 -3 4 -6 -2 -5 -13z"/>
<path d="M6503 4880 c0 -47 2 -66 4 -42 2 23 2 61 0 85 -2 23 -4 4 -4 -43z"/>
<path d="M6482 4925 c0 -16 2 -22 5 -12 2 9 2 23 0 30 -3 6 -5 -1 -5 -18z"/>
<path d="M2650 4861 c0 -6 4 -13 10 -16 6 -3 7 1 4 9 -7 18 -14 21 -14 7z"/>
<path d="M2436 4515 c-3 -8 -1 -15 4 -15 6 0 10 7 10 15 0 8 -2 15 -4 15 -2 0
-6 -7 -10 -15z"/>
<path d="M2390 4468 c0 -4 4 -8 9 -8 6 0 12 4 15 8 3 5 -1 9 -9 9 -8 0 -15 -4
-15 -9z"/>
<path d="M800 4255 c0 -11 11 -15 40 -15 29 0 40 4 40 15 0 11 -11 15 -40 15
-29 0 -40 -4 -40 -15z"/>
<path d="M240 3720 c0 -29 4 -40 15 -40 11 0 15 11 15 40 0 29 -4 40 -15 40
-11 0 -15 -11 -15 -40z"/>
<path d="M6582 3143 c28 -62 44 -83 61 -83 17 0 16 3 -7 21 -14 11 -24 24 -22
28 3 4 -4 15 -16 25 -11 10 -18 14 -16 9z"/>
<path d="M10218 2643 c7 -3 16 -2 19 1 4 3 -2 6 -13 5 -11 0 -14 -3 -6 -6z"/>
<path d="M6883 2363 c9 -2 23 -2 30 0 6 3 -1 5 -18 5 -16 0 -22 -2 -12 -5z"/>
<path d="M6803 2353 c9 -2 25 -2 35 0 9 3 1 5 -18 5 -19 0 -27 -2 -17 -5z"/>
<path d="M6713 2343 c9 -2 25 -2 35 0 9 3 1 5 -18 5 -19 0 -27 -2 -17 -5z"/>
<path d="M6628 2333 c12 -2 30 -2 40 0 9 3 -1 5 -23 4 -22 0 -30 -2 -17 -4z"/>
<path d="M6788 2333 c6 -2 18 -2 25 0 6 3 1 5 -13 5 -14 0 -19 -2 -12 -5z"/>
<path d="M6728 2323 c7 -3 16 -2 19 1 4 3 -2 6 -13 5 -11 0 -14 -3 -6 -6z"/>
<path d="M6848 2323 c6 -2 18 -2 25 0 6 3 1 5 -13 5 -14 0 -19 -2 -12 -5z"/>
<path d="M3160 2105 c0 -8 2 -15 4 -15 2 0 6 7 10 15 3 8 1 15 -4 15 -6 0 -10
-7 -10 -15z"/>
<path d="M3105 2049 c14 -7 1 -8 -45 -5 -36 2 -54 1 -40 -2 23 -4 24 -5 5 -12
-21 -9 78 -2 105 6 13 5 13 6 0 14 -8 6 -22 9 -30 9 -10 0 -9 -3 5 -10z"/>
<path d="M3175 2044 c9 -9 19 -13 23 -10 3 4 0 11 -8 16 -24 15 -33 11 -15 -6z"/>
<path d="M2921 2046 c2 -2 18 -6 34 -10 22 -5 26 -4 15 4 -14 9 -59 15 -49 6z"/>
<path d="M3133 2022 c-35 -3 -43 -16 -18 -26 8 -3 15 -1 15 4 0 6 10 10 23 10
16 0 18 -3 8 -9 -9 -6 -5 -8 13 -8 14 0 26 2 26 6 0 13 -37 26 -67 23z"/>
<path d="M3128 1963 c7 -3 16 -2 19 1 4 3 -2 6 -13 5 -11 0 -14 -3 -6 -6z"/>
<path d="M558 1863 c6 -2 18 -2 25 0 6 3 1 5 -13 5 -14 0 -19 -2 -12 -5z"/>
<path d="M3628 1733 c7 -3 16 -2 19 1 4 3 -2 6 -13 5 -11 0 -14 -3 -6 -6z"/>
<path d="M3675 1720 c3 -5 8 -10 11 -10 2 0 4 5 4 10 0 6 -5 10 -11 10 -5 0
-7 -4 -4 -10z"/>
<path d="M9840 1589 c0 -6 -11 -20 -25 -31 -31 -24 -32 -38 -2 -38 16 0 27
-11 41 -40 11 -22 22 -40 25 -40 9 0 41 59 41 75 0 10 6 12 18 8 15 -6 15 -5
3 10 -7 9 -19 17 -26 17 -8 0 -22 11 -33 25 -21 26 -42 33 -42 14z"/>
<path d="M4390 1570 c0 -5 5 -10 11 -10 5 0 7 5 4 10 -3 6 -8 10 -11 10 -2 0
-4 -4 -4 -10z"/>
<path d="M9680 1535 c0 -11 11 -15 40 -15 29 0 40 4 40 15 0 11 -11 15 -40 15
-29 0 -40 -4 -40 -15z"/>
<path d="M9360 1295 c0 -11 11 -15 40 -15 29 0 40 4 40 15 0 11 -11 15 -40 15
-29 0 -40 -4 -40 -15z"/>
<path d="M6000 1290 c0 -5 18 -10 40 -10 22 0 40 5 40 10 0 6 -18 10 -40 10
-22 0 -40 -4 -40 -10z"/>
<path d="M7210 1185 c0 -10 11 -15 35 -15 24 0 35 5 35 15 0 10 -11 15 -35 15
-24 0 -35 -5 -35 -15z"/>
<path d="M8210 1116 c0 -2 7 -9 15 -16 12 -10 15 -10 15 4 0 9 -7 16 -15 16
-8 0 -15 -2 -15 -4z"/>
</g>
</svg>
